<?xml version="1.0" encoding="utf-8"?>
<!-- Generator: Adobe Illustrator 19.2.1, SVG Export Plug-In . SVG Version: 6.00 Build 0)  -->
<svg version="1.1" id="Layer_1" xmlns="http://www.w3.org/2000/svg" xmlns:xlink="http://www.w3.org/1999/xlink" x="0px" y="0px"
	 viewBox="0 0 542 130" style="enable-background:new 0 0 542 130;" xml:space="preserve">
<style type="text/css">
	.st0{fill:#D3164D;}
	.st1{fill:#FFFFFF;stroke:#D3164D;stroke-miterlimit:10;}
	.st2{fill:#444444;}
</style>
<circle class="st0" cx="69.7" cy="65" r="49.8"/>
<path class="st1" d="M102.3,59.2c-0.2,0-0.3,0-0.5,0c-1.9-16-15.6-28.4-32-28.4c-16.5,0-30.1,12.4-32,28.4c-0.2,0-0.3,0-0.5,0h-3.9
	v3.9c0,19.9,16.2,36.2,36.2,36.2H70c19.9,0,36.2-16.2,36.2-36.2v-3.9C106.1,59.2,102.3,59.2,102.3,59.2z M69.7,38.5
	c12.5,0,22.9,9.5,24.3,21.6c-1.8,0.4-3.5,1-5.2,1.6c-1.8-8.2-8.1-15.3-17.5-19.4l-1.6-0.7l-1.6,0.7c-9.4,4.2-15.7,11.2-17.5,19.4
	c-1.7-0.7-3.4-1.2-5.2-1.6C46.8,48,57.2,38.5,69.7,38.5z M41.3,67.2c12.3,1.8,22.1,11.6,23.9,23.9C52.9,89.3,43.2,79.6,41.3,67.2z
	 M69.7,79.6C67,74,62.9,69.2,57.8,65.7c0.5-6.2,4.8-11.9,11.9-15.5c7.1,3.6,11.4,9.3,11.9,15.5C76.5,69.2,72.4,74,69.7,79.6z
	 M74.1,91.2C76,78.8,85.7,69.1,98.1,67.2C96.2,79.6,86.5,89.3,74.1,91.2z"/>
<g>
	<path class="st2" d="M163.1,49.9l0.6-13c0.1-1,0.5-1.8,1.2-2.3c0.8-0.6,1.6-0.8,2.4-0.8c0.8,0,1.5,0.2,2.1,0.7
		c0.6,0.5,0.9,1.3,0.9,2.3v13.1h8.3c1,0,1.7,0.3,2.2,0.9c0.5,0.6,0.7,1.2,0.7,1.9c0,0.7-0.2,1.3-0.7,1.9c-0.5,0.6-1.2,0.8-2.2,0.8
		h-8.3v21.4c0,2.8,0,5,0.1,6.8c0.1,1.8,0.3,3.2,0.6,4.3c0.4,1.1,0.9,1.9,1.7,2.3c0.8,0.4,1.8,0.7,3.2,0.7c0.8,0,1.6-0.1,2.5-0.2
		c0.9-0.1,1.6-0.2,2.3-0.2c0.9,0,1.6,0.3,2,0.8c0.4,0.5,0.7,1.1,0.7,1.6c0,0.8-0.3,1.4-0.8,1.9c-0.6,0.5-1.3,0.9-2.2,1.1
		c-0.9,0.3-1.9,0.5-2.9,0.6c-1,0.1-1.9,0.1-2.6,0.1c-2.1,0-3.8-0.3-5.4-0.8c-1.5-0.5-2.8-1.4-3.8-2.7c-1-1.2-1.7-2.8-2.2-4.8
		c-0.5-2-0.7-4.5-0.7-7.4V55.4h-5.6c-1,0-1.7-0.3-2.2-0.9c-0.5-0.6-0.8-1.2-0.8-1.9c0-0.7,0.3-1.3,0.8-1.9c0.5-0.6,1.3-0.9,2.2-0.9
		H163.1z"/>
	<path class="st2" d="M202.9,34c0,1.1-0.4,2.1-1.3,3c-0.9,0.8-2.1,1.3-3.7,1.3c-1.6,0-2.8-0.4-3.7-1.3c-0.9-0.8-1.3-1.8-1.3-3
		s0.4-2.1,1.3-3c0.9-0.8,2.1-1.3,3.7-1.3c1.6,0,2.8,0.4,3.7,1.3C202.5,31.9,202.9,32.9,202.9,34z M194.3,53.6c0-1.2,0.4-2.2,1.2-2.8
		c0.8-0.6,1.6-0.9,2.6-0.9c0.5,0,0.9,0.1,1.3,0.2s0.8,0.4,1.2,0.7c0.3,0.3,0.6,0.7,0.8,1.2c0.2,0.5,0.3,1,0.3,1.6v38.3
		c0,1.2-0.4,2.2-1.2,2.8c-0.8,0.6-1.7,0.9-2.6,0.9c-0.9,0-1.8-0.3-2.5-0.9c-0.7-0.6-1.1-1.5-1.1-2.8V53.6z"/>
	<path class="st2" d="M210.7,72.7c0-3.2,0.5-6.3,1.5-9.2c1-2.9,2.4-5.4,4.2-7.6c1.9-2.2,4.1-3.9,6.9-5.2c2.7-1.3,5.8-1.9,9.3-1.9
		c1.4,0,3,0.1,4.6,0.4c1.6,0.3,3.2,0.7,4.5,1.2c1.4,0.5,2.5,1.2,3.4,1.9c0.9,0.7,1.4,1.6,1.4,2.5c0,0.7-0.2,1.3-0.7,1.9
		c-0.5,0.6-1.1,0.8-1.9,0.8c-0.4,0-0.8-0.1-1.2-0.3c-3.1-1.8-6.2-2.7-9.5-2.7c-2.2,0-4.2,0.4-6,1.3c-1.8,0.8-3.3,2-4.6,3.6
		c-1.3,1.6-2.3,3.4-3,5.6c-0.7,2.2-1.1,4.7-1.1,7.5c0,2.2,0.2,4.4,0.7,6.5c0.5,2.1,1.3,4.1,2.4,5.9c1.1,1.8,2.6,3.2,4.6,4.3
		c1.9,1,4.2,1.6,6.9,1.6c1.7,0,3.4-0.3,5.1-0.8c1.7-0.5,3.5-1.3,5.4-2.2c0.5-0.2,0.9-0.3,1.3-0.3c0.7,0,1.3,0.3,1.8,0.8
		c0.4,0.5,0.7,1.1,0.7,1.8c0,0.9-0.5,1.8-1.5,2.6c-1,0.8-2.3,1.5-3.8,2s-3.2,1-4.9,1.3c-1.8,0.3-3.4,0.5-4.9,0.5
		c-3.5,0-6.6-0.6-9.2-1.9c-2.7-1.3-4.9-3-6.7-5.2c-1.8-2.2-3.2-4.7-4.1-7.6C211.1,79,210.7,76,210.7,72.7z"/>
	<path class="st2" d="M263.1,71v20.9c0,1.2-0.4,2.2-1.2,2.8s-1.7,0.9-2.6,0.9c-0.9,0-1.7-0.3-2.5-0.9c-0.8-0.6-1.1-1.5-1.1-2.8V33.6
		c0-1.2,0.4-2.2,1.2-2.8s1.6-0.9,2.6-0.9c0.5,0,0.9,0.1,1.3,0.2c0.4,0.2,0.8,0.4,1.2,0.7c0.3,0.3,0.6,0.7,0.8,1.2
		c0.2,0.5,0.3,1,0.3,1.6v34.9L283.9,51c0.7-0.7,1.5-1.1,2.4-1.1c0.9,0,1.6,0.3,2.3,0.9c0.6,0.6,1,1.3,1,2.1c0,0.3-0.1,0.7-0.2,1
		c-0.2,0.4-0.4,0.7-0.7,1l-17.8,14.8l20.1,20.8c0.3,0.3,0.5,0.6,0.6,0.9c0.1,0.3,0.2,0.6,0.2,0.9c0,0.4-0.1,0.8-0.3,1.2
		s-0.5,0.8-0.8,1.1c-0.3,0.3-0.7,0.5-1.2,0.7c-0.4,0.2-0.9,0.3-1.3,0.3c-0.8,0-1.6-0.4-2.4-1.2L263.1,71z"/>
	<path class="st2" d="M337.7,71.4c0,0.7-0.2,1.3-0.7,1.9c-0.4,0.5-1.2,0.8-2.3,0.8h-33c0.1,3,0.5,5.5,1.3,7.5
		c0.8,2.1,1.9,3.8,3.4,5.2c1.5,1.4,3.1,2.4,4.9,3.1c1.8,0.7,3.8,1,5.9,1c2.2,0,4.5-0.4,6.8-1.2c2.3-0.8,4.6-2,6.9-3.6
		c0.3-0.2,0.7-0.4,1-0.5c0.3-0.1,0.6-0.1,0.9-0.1c0.7,0,1.3,0.2,1.7,0.7c0.4,0.5,0.6,1,0.6,1.7c0,0.3-0.1,0.7-0.2,1.1
		c-0.2,0.4-0.4,0.7-0.8,1.1c-1.3,1.2-2.6,2.2-4,3.1c-1.4,0.8-2.9,1.5-4.4,2.1c-1.5,0.5-3,0.9-4.6,1.2c-1.5,0.2-3,0.4-4.5,0.4
		c-3.1,0-6-0.5-8.8-1.6c-2.8-1.1-5.2-2.7-7.2-4.7c-2-2.1-3.7-4.6-4.8-7.5c-1.2-3-1.8-6.3-1.8-10c0-3.2,0.5-6.2,1.4-9.1
		c0.9-2.9,2.3-5.4,4.2-7.6c1.8-2.2,4.1-3.9,6.9-5.2c2.7-1.3,5.9-1.9,9.4-1.9c3.7,0,6.9,0.6,9.7,1.7c2.7,1.1,5,2.7,6.7,4.7
		c1.8,2,3.1,4.4,4,7.1C337.2,65.1,337.7,68.1,337.7,71.4z M330.5,69.1c-0.2-2.2-0.6-4.1-1.2-5.9c-0.7-1.8-1.6-3.3-2.8-4.6
		c-1.2-1.3-2.7-2.3-4.4-3c-1.7-0.7-3.8-1-6.1-1c-2,0-3.8,0.4-5.5,1.2c-1.7,0.8-3.1,1.8-4.3,3.2c-1.2,1.3-2.2,2.9-2.9,4.6
		c-0.7,1.8-1.2,3.6-1.3,5.6H330.5z"/>
	<path class="st2" d="M350.6,49.9l0.6-13c0.1-1,0.5-1.8,1.2-2.3c0.8-0.6,1.6-0.8,2.4-0.8c0.8,0,1.5,0.2,2.1,0.7
		c0.6,0.5,0.9,1.3,0.9,2.3v13.1h8.3c1,0,1.7,0.3,2.2,0.9c0.5,0.6,0.7,1.2,0.7,1.9c0,0.7-0.2,1.3-0.7,1.9s-1.2,0.8-2.2,0.8h-8.3v21.4
		c0,2.8,0,5,0.1,6.8s0.3,3.2,0.6,4.3s0.9,1.9,1.7,2.3c0.8,0.4,1.8,0.7,3.2,0.7c0.8,0,1.6-0.1,2.5-0.2s1.6-0.2,2.3-0.2
		c0.9,0,1.6,0.3,2,0.8c0.4,0.5,0.7,1.1,0.7,1.6c0,0.8-0.3,1.4-0.8,1.9c-0.6,0.5-1.3,0.9-2.2,1.1c-0.9,0.3-1.9,0.5-2.9,0.6
		c-1,0.1-1.9,0.1-2.6,0.1c-2.1,0-3.8-0.3-5.4-0.8c-1.5-0.5-2.8-1.4-3.8-2.7c-1-1.2-1.7-2.8-2.2-4.8c-0.5-2-0.7-4.5-0.7-7.4V55.4
		h-5.6c-1,0-1.7-0.3-2.2-0.9c-0.5-0.6-0.8-1.2-0.8-1.9c0-0.7,0.3-1.3,0.8-1.9c0.5-0.6,1.3-0.9,2.2-0.9H350.6z"/>
	<path class="st2" d="M388,92.3c-0.1,1.1-0.5,1.9-1.2,2.4c-0.7,0.6-1.5,0.8-2.4,0.8c-0.9,0-1.7-0.3-2.4-0.9
		c-0.7-0.6-1.1-1.4-1.1-2.6V33.3c0-1.1,0.4-1.9,1.2-2.5c0.8-0.6,1.6-0.9,2.6-0.9s1.8,0.3,2.5,0.8c0.8,0.6,1.1,1.4,1.1,2.5v24.1
		c0.8-1.4,1.9-2.7,3.1-3.8s2.5-1.9,4-2.6s2.9-1.2,4.5-1.5c1.6-0.3,3.2-0.5,4.7-0.5c3.4,0,6.3,0.7,8.7,2c2.4,1.3,4.5,3.1,6,5.2
		c1.6,2.2,2.7,4.7,3.5,7.5c0.8,2.8,1.1,5.8,1.1,8.9c0,3-0.4,5.9-1.1,8.8c-0.7,2.9-1.9,5.5-3.4,7.7c-1.5,2.3-3.5,4.1-5.9,5.5
		c-2.4,1.4-5.3,2.1-8.6,2.1c-3.4,0-6.6-0.7-9.5-2.1c-2.9-1.4-5.3-3.7-7.4-6.9V92.3z M388.3,71.9c0,2.6,0.2,5.1,0.7,7.4
		c0.5,2.3,1.3,4.3,2.5,6s2.7,3.1,4.6,4.1s4.3,1.5,7.2,1.5c1.7,0,3.2-0.3,4.5-0.8c1.3-0.5,2.4-1.3,3.4-2.2c1-0.9,1.7-2,2.4-3.3
		c0.6-1.2,1.1-2.5,1.5-3.9c0.4-1.4,0.6-2.8,0.8-4.2c0.2-1.5,0.2-2.9,0.2-4.3c0-2.2-0.2-4.3-0.7-6.4c-0.5-2.1-1.2-4-2.3-5.7
		c-1-1.6-2.4-3-4.2-4c-1.7-1-3.9-1.5-6.4-1.5c-2.6,0-4.8,0.5-6.6,1.4c-1.8,0.9-3.3,2.2-4.4,3.8c-1.1,1.6-2,3.4-2.5,5.5
		C388.5,67.4,388.3,69.6,388.3,71.9z"/>
	<path class="st2" d="M470.8,92.2c0,1.2-0.4,2-1.2,2.6c-0.8,0.6-1.6,0.9-2.6,0.9c-0.5,0-0.9-0.1-1.3-0.2c-0.4-0.1-0.8-0.3-1.2-0.6
		c-0.3-0.3-0.6-0.6-0.8-1.1c-0.2-0.4-0.3-0.9-0.3-1.5v-4.2c-0.6,1.4-1.5,2.6-2.6,3.6c-1.1,1.1-2.3,2-3.7,2.7s-2.8,1.3-4.4,1.7
		c-1.6,0.4-3.1,0.6-4.7,0.6c-2.2,0-4.3-0.3-6.3-1c-2-0.7-3.7-1.7-5.2-3.2s-2.7-3.3-3.6-5.6c-0.9-2.3-1.3-5-1.3-8.1V53.4
		c0-1.2,0.4-2,1.2-2.6c0.8-0.6,1.6-0.9,2.5-0.9s1.8,0.3,2.5,0.9c0.8,0.6,1.2,1.4,1.2,2.6v25.9c0,2,0.2,3.8,0.6,5.3
		c0.4,1.5,1.1,2.8,2,3.8c1,1,2.1,1.6,3.5,2s2.9,0.6,4.5,0.6c1.8,0,3.5-0.3,5.1-0.8c1.6-0.5,3-1.3,4.3-2.4c1.2-1.1,2.2-2.5,3-4.1
		s1.3-3.6,1.4-5.9V53.4c0-1.1,0.4-2,1.2-2.6c0.8-0.6,1.6-0.9,2.6-0.9c0.9,0,1.8,0.3,2.5,0.9c0.8,0.6,1.1,1.4,1.1,2.6V92.2z"/>
	<path class="st2" d="M521.9,92.2c0,1.2-0.4,2-1.1,2.6c-0.8,0.6-1.6,0.9-2.5,0.9c-0.5,0-0.9-0.1-1.3-0.2c-0.4-0.1-0.8-0.4-1.2-0.6
		c-0.4-0.3-0.6-0.6-0.9-1.1c-0.2-0.4-0.3-0.9-0.4-1.5v-2.1c0-0.6,0-1,0-1.5V88c-2.1,3.1-4.6,5.3-7.3,6.6s-5.8,2-9.2,2
		c-3.4,0-6.2-0.7-8.6-2.1c-2.4-1.4-4.4-3.2-5.9-5.5c-1.5-2.3-2.7-4.9-3.4-7.8c-0.7-2.9-1.1-5.8-1.1-8.8c0-3.1,0.4-6.1,1.1-8.9
		c0.7-2.8,1.9-5.4,3.5-7.5c1.6-2.2,3.6-3.9,6-5.2c2.4-1.3,5.4-2,8.8-2c1.6,0,3.1,0.2,4.7,0.5c1.6,0.3,3.1,0.9,4.5,1.5
		c1.4,0.7,2.8,1.6,4,2.6c1.2,1,2.2,2.3,3.1,3.7v-24c0-1.1,0.4-2,1.1-2.5c0.8-0.6,1.6-0.8,2.5-0.8s1.8,0.3,2.6,0.9
		c0.8,0.6,1.2,1.4,1.2,2.5V92.2z M500.2,54.6c-2.6,0-4.7,0.5-6.4,1.5c-1.7,1-3.1,2.4-4.2,4c-1.1,1.7-1.8,3.6-2.3,5.7
		c-0.5,2.1-0.7,4.2-0.7,6.4c0,1.2,0.1,2.6,0.2,4.2c0.2,1.5,0.4,3,0.8,4.4c0.4,1.4,0.9,2.7,1.5,3.9c0.6,1.2,1.4,2.3,2.4,3.3
		c1,0.9,2.1,1.7,3.4,2.2s2.8,0.8,4.5,0.8c2.9,0,5.3-0.5,7.2-1.5c1.9-1,3.4-2.4,4.6-4.1s1.9-3.7,2.4-6c0.5-2.3,0.7-4.8,0.7-7.3
		c0-2.3-0.2-4.5-0.7-6.5s-1.3-3.9-2.4-5.5s-2.6-2.9-4.4-3.8C505.1,55.1,502.9,54.6,500.2,54.6z"/>
</g>
</svg>
